<?xml version="1.0" encoding="utf-8"?>
<!-- Generator: Adobe Illustrator 22.0.1, SVG Export Plug-In . SVG Version: 6.00 Build 0)  -->
<svg version="1.1" id="Layer_1" xmlns="http://www.w3.org/2000/svg" xmlns:xlink="http://www.w3.org/1999/xlink" x="0px" y="0px"
	 width="17.9px" height="17.9px" viewBox="0 0 17.9 17.9" enable-background="new 0 0 17.9 17.9" xml:space="preserve">
<path id="HeadPhone" fill="#FFFFFF" d="M8.9,0C4.1-0.1,0.1,3.6,0,8.4c0,0,0,0,0,0.1v6.6c0.1,1.6,1.4,2.8,3,2.8h2.4
	c0.3,0,0.6-0.2,0.6-0.5c0,0,0,0,0-0.1v-6.4c0-0.3-0.2-0.6-0.6-0.6c0,0,0,0-0.1,0H2V8.8c0.1-3.9,3.3-7,7.1-6.9c0,0,0,0,0.1,0
	c3.7,0,6.6,2.9,6.7,6.6v1.9h-3.3c-0.3,0-0.6,0.2-0.6,0.5c0,0,0,0,0,0.1v6.3c0,0.3,0.2,0.6,0.6,0.6c0,0,0,0,0.1,0h2.4
	c1.6,0,2.9-1.2,3-2.8V8.5C17.8,3.7,13.8-0.1,8.9,0C9,0,9,0,8.9,0z"/>
</svg>
