<?xml version="1.0" encoding="utf-8"?>
<!-- Generator: Adobe Illustrator 22.0.1, SVG Export Plug-In . SVG Version: 6.00 Build 0)  -->
<svg version="1.1" id="Layer_1" xmlns="http://www.w3.org/2000/svg" xmlns:xlink="http://www.w3.org/1999/xlink" x="0px" y="0px"
	 viewBox="0 0 48 48" enable-background="new 0 0 48 48" xml:space="preserve">
<path fill="#F3F3F3" d="M24,0C10.8,0,0,10.8,0,24s10.8,24,24,24s24-10.8,24-24S37.2,0,24,0z M17.4,11.6c1.8-1.9,4.3-2.9,6.9-2.9
	c2.6,0,5.1,1,6.9,2.9c1.9,1.8,2.9,4.3,2.9,6.9c0,2.6-1,5.1-2.9,6.9c-1.8,1.9-4.3,2.9-6.9,2.9c-2.6,0-5.1-1-6.9-2.9
	c-1.9-1.8-2.9-4.3-2.9-6.9C14.5,15.9,15.5,13.4,17.4,11.6z M24,47c-7,0-13.3-3.1-17.5-8.1c0.1-0.7,0.2-1.5,0.3-2.2
	C7,35.8,7.2,34.9,7.5,34c0.3-0.9,0.6-1.7,1.1-2.5c0.4-0.8,1-1.5,1.6-2.1c0.6-0.6,1.4-1,2.2-1.4c0.9-0.3,1.9-0.5,2.8-0.5
	c0.4,0.1,0.8,0.3,1.1,0.5c0.6,0.4,1.2,0.8,1.9,1.2c0.8,0.5,1.8,0.9,2.7,1.2c2.2,0.7,4.6,0.7,6.9,0c1-0.3,1.9-0.7,2.7-1.2
	c0.7-0.4,1.3-0.9,1.9-1.2c0.3-0.3,0.7-0.4,1.1-0.5c1,0,1.9,0.2,2.8,0.5c0.8,0.3,1.5,0.8,2.2,1.4c0.6,0.6,1.2,1.3,1.6,2.1
	c0.4,0.8,0.8,1.6,1.1,2.5c0.3,0.9,0.5,1.8,0.7,2.8c0.1,0.6,0.2,1.1,0.2,1.7C37.7,43.6,31.2,47,24,47z"/>
</svg>
